<?xml version="1.0" encoding="utf-8"?>
<!-- Generator: Adobe Illustrator 18.0.0, SVG Export Plug-In . SVG Version: 6.00 Build 0)  -->
<!DOCTYPE svg PUBLIC "-//W3C//DTD SVG 1.1//EN" "http://www.w3.org/Graphics/SVG/1.1/DTD/svg11.dtd">
<svg version="1.1" id="Layer_1" xmlns="http://www.w3.org/2000/svg" xmlns:xlink="http://www.w3.org/1999/xlink" x="0px" y="0px"
	 viewBox="0 0 20 20" enable-background="new 0 0 20 20" xml:space="preserve">
<g>
	<g>
		<circle fill="#231F20" cx="10" cy="10" r="10"/>
	</g>
	<g>
		<path fill="#FFFFFF" d="M6.177,16.396c-0.977-0.978-1.881-1.881-2.825-2.825c1.193-1.157,2.412-2.339,3.656-3.546
			C5.746,8.771,4.553,7.586,3.347,6.388c0.969-0.929,1.89-1.813,2.816-2.701c1.124,1.126,2.314,2.319,3.514,3.521
			c1.233-1.243,2.42-2.439,3.575-3.604c0.968,0.938,1.884,1.827,2.798,2.713c-1.198,1.198-2.389,2.388-3.612,3.61
			c1.271,1.253,2.481,2.446,3.667,3.615c-0.948,0.948-1.851,1.85-2.762,2.761c-1.153-1.163-2.347-2.366-3.53-3.559
			C8.56,14.003,7.37,15.198,6.177,16.396z"/>
	</g>
</g>
</svg>
