<?xml version="1.0" encoding="utf-8"?>
<!-- Generator: Adobe Illustrator 18.0.0, SVG Export Plug-In . SVG Version: 6.00 Build 0)  -->
<!DOCTYPE svg PUBLIC "-//W3C//DTD SVG 1.1//EN" "http://www.w3.org/Graphics/SVG/1.1/DTD/svg11.dtd">
<svg version="1.1" id="Layer_1" xmlns="http://www.w3.org/2000/svg" xmlns:xlink="http://www.w3.org/1999/xlink" x="0px" y="0px"
	 viewBox="0 0 135 22.765" enable-background="new 0 0 135 22.765" xml:space="preserve">
<g>
	<path fill="#231F20" d="M14.101,0.513c-2.549,0-4.623,2.074-4.623,4.623s2.073,4.625,4.623,4.625s4.623-2.076,4.623-4.625
		S16.65,0.513,14.101,0.513 M14.101,8.85c-2.048,0-3.714-1.667-3.714-3.714c0-2.046,1.667-3.712,3.714-3.712
		s3.714,1.666,3.714,3.712C17.815,7.183,16.149,8.85,14.101,8.85"/>
	<path fill="#231F20" d="M53.963,5.195c-0.249-0.13-1.757-0.907-1.974-1.02c-0.792-0.403-1.072-0.761-1.072-1.367
		c0-0.841,0.691-1.385,1.762-1.385c0.629,0,1.237,0.277,1.593,0.477c0.065,0.036,0.142,0.055,0.221,0.055
		c0.25,0,0.455-0.204,0.455-0.454c0-0.168-0.092-0.315-0.228-0.394c-0.449-0.25-1.215-0.595-2.041-0.595
		c-1.573,0-2.672,0.944-2.672,2.295c0,1.213,0.797,1.786,1.578,2.184c0.218,0.111,1.744,0.898,1.973,1.019
		c0.603,0.316,0.936,0.789,0.936,1.334c0,0.73-0.618,1.506-1.763,1.506c-1.113,0-1.978-0.747-2.217-0.977l-0.07-0.068l-0.674,0.613
		l0.079,0.079c0.299,0.297,1.391,1.264,2.882,1.264c1.672,0,2.672-1.229,2.672-2.417C55.403,6.457,54.879,5.673,53.963,5.195"/>
	<path fill="#231F20" d="M4.623,1.424c0.993,0,1.926,0.386,2.626,1.087c0.167,0.166,0.48,0.166,0.643,0
		c0.087-0.085,0.134-0.199,0.134-0.322c0-0.121-0.047-0.236-0.134-0.321L7.837,1.811C6.97,0.974,5.828,0.513,4.623,0.513
		C2.074,0.513,0,2.587,0,5.136s2.074,4.625,4.623,4.625c1.346,0,2.557-0.578,3.402-1.498L7.381,7.618
		C6.701,8.374,5.717,8.85,4.623,8.85c-2.047,0-3.714-1.667-3.714-3.714C0.909,3.09,2.575,1.424,4.623,1.424"/>
	<path fill="#231F20" d="M35.962,1.424c0.992,0,1.926,0.386,2.626,1.087c0.167,0.166,0.48,0.166,0.643,0
		c0.087-0.085,0.134-0.199,0.134-0.322c0-0.121-0.047-0.236-0.134-0.321l-0.055-0.057c-0.867-0.837-2.008-1.298-3.214-1.298
		c-2.549,0-4.623,2.074-4.623,4.623s2.074,4.625,4.623,4.625c1.345,0,2.557-0.578,3.403-1.498l-0.644-0.644
		c-0.68,0.755-1.665,1.231-2.759,1.231c-2.048,0-3.714-1.667-3.714-3.714C32.249,3.09,33.915,1.424,35.962,1.424"/>
	<path fill="#231F20" d="M28.131,0.513c-0.171,0-0.305,0.11-0.379,0.253c-0.074,0.142-2.72,6.686-2.72,6.686
		s-2.646-6.545-2.72-6.686c-0.074-0.143-0.208-0.253-0.379-0.253c-0.199,0-0.349,0.146-0.402,0.332
		c-0.052,0.186-1.545,8.423-1.545,8.423c-0.006,0.026-0.009,0.054-0.009,0.082c0,0.227,0.185,0.41,0.41,0.41
		c0.2,0,0.367-0.143,0.403-0.332l1.292-7.047c0,0,2.494,6.162,2.567,6.309c0.073,0.147,0.209,0.26,0.382,0.26
		c0.173,0,0.309-0.113,0.382-0.26c0.073-0.146,2.567-6.309,2.567-6.309l1.343,7.328h0.834c0,0-1.573-8.679-1.625-8.865
		C28.481,0.659,28.331,0.513,28.131,0.513"/>
	<path fill="#231F20" d="M44.569,0.513c-0.173,0-0.307,0.112-0.382,0.259c-0.075,0.147-3.424,8.418-3.424,8.418
		c-0.02,0.049-0.031,0.103-0.031,0.159c0,0.227,0.183,0.41,0.41,0.41c0.173,0,0.322-0.108,0.381-0.26l1.3-3.198h3.492l1.387,3.407
		h0.886c0,0-3.564-8.79-3.637-8.937S44.742,0.513,44.569,0.513 M43.194,5.392l1.375-3.38l1.375,3.38H43.194z"/>
	<path fill="#231F20" d="M62.565,1.017c0-0.252-0.205-0.455-0.456-0.455h-5.148c-0.25,0-0.453,0.203-0.453,0.455
		c0,0.251,0.203,0.454,0.453,0.454h2.158v8.238h0.833V1.471h2.156C62.36,1.471,62.565,1.268,62.565,1.017"/>
	<path fill="#006CB6" d="M27.354,12.95c-0.456,0-0.737,0.321-0.737,0.715v8.48h1.474v-8.48C28.09,13.271,27.81,12.95,27.354,12.95"
		/>
	<path fill="#006CB6" d="M10.633,18.511l0.001-4.845c0-0.394-0.29-0.715-0.736-0.715c-0.454,0-0.739,0.321-0.739,0.715v4.801
		c0,2.055,1.448,3.726,3.754,3.726c2.302,0,3.754-1.671,3.754-3.726l0.001-5.468H15.19v5.512c0,1.213-0.807,2.297-2.278,2.297
		C11.44,20.809,10.633,19.724,10.633,18.511"/>
	<path fill="#006CB6" d="M46.335,14.441c0.483,0,0.779-0.31,0.779-0.721c0-0.41-0.295-0.721-0.779-0.721h-4.513
		c-0.42,0-0.715,0.298-0.715,0.713v7.723c0,0.403,0.301,0.711,0.715,0.711h5.245v-1.438h-4.488v-2.655h3.384
		c0.514,0,0.797-0.305,0.797-0.719s-0.281-0.719-0.797-0.719h-3.384v-2.174H46.335z"/>
	<path fill="#006CB6" d="M5.94,17.193c0.245-0.156,0.923-0.689,0.923-1.875c0-1.402-1.003-2.32-2.54-2.32h-3.16
		c-0.426,0-0.712,0.291-0.712,0.712v8.434h4.057c1.644,0,2.78-1.197,2.78-2.728C7.287,17.787,6.2,17.314,5.94,17.193 M1.924,14.428
		h2.212c0.831,0,1.235,0.496,1.235,1.112c0,0.612-0.443,1.113-1.235,1.113H1.924V14.428z M4.23,20.734H1.924v-2.735L4.23,18
		c1.06,0,1.565,0.615,1.565,1.367S5.259,20.734,4.23,20.734"/>
	<path fill="#006CB6" d="M31.739,12.95c-0.446,0-0.734,0.317-0.734,0.707v7.825c0,0.394,0.347,0.71,0.741,0.71
		c0.385,0,0.731-0.316,0.731-0.71v-5.646c0,0,3.587,4.588,4.54,5.799c0.238,0.302,0.406,0.557,0.831,0.557
		c0.428,0,0.715-0.309,0.715-0.711v-8.483h-1.471v6.332c0,0-4-5.131-4.558-5.841C32.279,13.163,32.078,12.95,31.739,12.95"/>
	<path fill="#006CB6" d="M18.381,20.837c0.188,0.244,1.049,1.363,2.952,1.363c1.863,0,3.134-1.074,3.134-2.57
		c0-0.983-0.388-1.776-1.843-2.477c-0.389-0.189-1.487-0.715-1.487-0.715c-0.584-0.282-0.84-0.618-0.84-1.07
		c0-0.482,0.396-0.998,1.357-0.998c0.548,0,0.972,0.176,1.199,0.279c0.111,0.051,0.375,0.177,0.622,0.177
		c0.323,0,0.675-0.23,0.675-0.697c0-0.392-0.281-0.604-0.525-0.72c-0.394-0.186-1.008-0.455-2.038-0.455
		c-1.629,0-2.837,1.033-2.837,2.458c0,1.312,0.878,1.962,1.945,2.474c0.202,0.098,0.988,0.478,1.204,0.583
		c0.671,0.325,1.024,0.634,1.024,1.198c0,0.613-0.568,1.121-1.432,1.121c-1.237,0-1.896-0.811-2.017-0.948L18.381,20.837z"/>
	<path fill="#006CB6" d="M48.569,20.837c0.188,0.244,1.055,1.363,2.958,1.363c1.86,0,3.129-1.074,3.129-2.57
		c0-0.983-0.381-1.776-1.844-2.477c-0.388-0.189-1.484-0.715-1.484-0.715c-0.586-0.282-0.842-0.618-0.842-1.07
		c0-0.482,0.395-0.998,1.362-0.998c0.545,0,0.966,0.176,1.195,0.279c0.112,0.051,0.375,0.177,0.626,0.177
		c0.323,0,0.676-0.23,0.676-0.697c0-0.392-0.28-0.604-0.527-0.72c-0.397-0.186-1.013-0.455-2.038-0.455
		c-1.626,0-2.839,1.033-2.839,2.458c0,1.312,0.881,1.962,1.942,2.474c0.204,0.098,0.993,0.478,1.211,0.583
		c0.664,0.325,1.018,0.634,1.018,1.198c0,0.613-0.571,1.121-1.429,1.121c-1.242,0-1.896-0.811-2.016-0.948L48.569,20.837z"/>
	<path fill="#006CB6" d="M56.053,20.837C56.241,21.081,57.097,22.2,59,22.2c1.862,0,3.139-1.074,3.139-2.57
		c0-0.983-0.39-1.776-1.843-2.477c-0.392-0.189-1.494-0.715-1.494-0.715c-0.576-0.282-0.833-0.618-0.833-1.07
		c0-0.482,0.396-0.998,1.353-0.998c0.549,0,0.977,0.176,1.204,0.279c0.108,0.051,0.366,0.177,0.616,0.177
		c0.324,0,0.678-0.23,0.678-0.697c0-0.392-0.282-0.604-0.528-0.72c-0.397-0.186-1.003-0.455-2.038-0.455
		c-1.625,0-2.829,1.033-2.829,2.458c0,1.312,0.871,1.962,1.944,2.474c0.2,0.098,0.982,0.478,1.201,0.583
		c0.674,0.325,1.025,0.634,1.025,1.198c0,0.613-0.566,1.121-1.435,1.121c-1.234,0-1.896-0.811-2.017-0.948L56.053,20.837z"/>
	<g>
		<defs>
			<path id="SVGID_1_" d="M88.053,10.339c-0.186,0-0.353,0.149-0.353,0.354v6.732c0,0.186,0.167,0.353,0.353,0.353h2.046
				c0.186,0,0.353-0.167,0.353-0.353v-6.732c0-0.204-0.167-0.354-0.353-0.354H88.053z M102.762,10.339
				c-0.187,0-0.354,0.149-0.354,0.354v6.732c0,0.186,0.167,0.353,0.354,0.353h2.046c0.186,0,0.353-0.167,0.353-0.353v-6.732
				c0-0.204-0.167-0.354-0.353-0.354H102.762z M122.528,11.38l-0.335-0.818c-0.055-0.112-0.13-0.223-0.335-0.223h-0.874
				c-0.186,0-0.353,0.149-0.353,0.354v6.732c0,0.186,0.167,0.353,0.353,0.353h1.897c0.298,0,0.409-0.13,0.409-0.353v-3.85
				c0-0.632,0.427-1.06,0.985-1.06c0.167,0,0.354,0.055,0.446,0.093c0.205,0.074,0.335-0.038,0.409-0.167l0.912-1.488
				c0.261-0.428-0.465-0.8-1.487-0.8C123.589,10.152,122.9,10.841,122.528,11.38 M128.795,14.04c0-0.818,0.651-1.488,1.469-1.488
				c0.819,0,1.469,0.67,1.469,1.488c0,0.837-0.651,1.525-1.469,1.525C129.446,15.565,128.795,14.877,128.795,14.04 M126.395,14.04
				c0,2.139,1.749,3.925,3.869,3.925c2.121,0,3.868-1.786,3.868-3.925c0-2.102-1.747-3.888-3.868-3.888
				C128.144,10.152,126.395,11.938,126.395,14.04 M87.589,6.619c0,0.818,0.65,1.469,1.469,1.469c0.818,0,1.487-0.651,1.487-1.469
				s-0.67-1.487-1.487-1.487C88.239,5.132,87.589,5.801,87.589,6.619 M102.296,6.619c0,0.818,0.651,1.469,1.47,1.469
				c0.818,0,1.487-0.651,1.487-1.469s-0.67-1.487-1.487-1.487C102.948,5.132,102.296,5.801,102.296,6.619 M93.167,4.759
				c-0.204,0-0.353,0.167-0.353,0.354v12.312c0,0.186,0.148,0.353,0.353,0.353h2.195c0.186,0,0.353-0.167,0.353-0.353v-4.519h4.241
				c0.186,0,0.353-0.167,0.353-0.354v-2.027c0-0.186-0.167-0.353-0.353-0.353h-4.241V7.493h5.152c0.204,0,0.353-0.167,0.353-0.353
				V5.113c0-0.186-0.148-0.354-0.353-0.354H93.167z M113.659,7.493h1.766c0.801,0,1.47,0.596,1.47,1.377
				c0,0.837-0.67,1.469-1.47,1.469h-1.766V7.493z M111.11,4.759c-0.204,0-0.353,0.167-0.353,0.354v12.312
				c0,0.186,0.149,0.353,0.353,0.353h2.195c0.186,0,0.354-0.167,0.354-0.353v-4.371h1.953c2.269,0,4.147-1.878,4.147-4.184
				c0-2.25-1.878-4.11-4.166-4.11H111.11z M78.663,4.574c-0.148,0-0.26,0.093-0.315,0.204l-2.883,6.546h-0.074l-1.6-6.304
				c-0.036-0.13-0.185-0.261-0.334-0.261H71.28c-0.261,0-0.409,0.186-0.335,0.447l3.515,12.497c0.037,0.149,0.186,0.261,0.335,0.261
				h0.297c0.131,0,0.261-0.094,0.317-0.205l3.385-7.607h0.056l3.403,7.607c0.057,0.111,0.186,0.205,0.317,0.205h0.298
				c0.149,0,0.298-0.112,0.335-0.261l3.515-12.497c0.074-0.261-0.074-0.447-0.335-0.447h-2.176c-0.148,0-0.298,0.131-0.335,0.261
				l-1.6,6.304h-0.074l-2.883-6.546c-0.037-0.111-0.148-0.204-0.317-0.204H78.663z"/>
		</defs>
		<clipPath id="SVGID_2_">
			<use xlink:href="#SVGID_1_"  overflow="visible"/>
		</clipPath>
		
			<linearGradient id="SVGID_3_" gradientUnits="userSpaceOnUse" x1="-27.2135" y1="28.384" x2="-26.4852" y2="28.384" gradientTransform="matrix(-86.853 0 0 86.853 -2229.4446 -2453.9666)">
			<stop  offset="0" style="stop-color:#006CB6"/>
			<stop  offset="0.1909" style="stop-color:#0069B2"/>
			<stop  offset="0.3962" style="stop-color:#0062A5"/>
			<stop  offset="0.6082" style="stop-color:#00568F"/>
			<stop  offset="0.8234" style="stop-color:#004471"/>
			<stop  offset="1" style="stop-color:#003353"/>
		</linearGradient>
		<rect x="70.871" y="4.574" clip-path="url(#SVGID_2_)" fill="url(#SVGID_3_)" width="63.261" height="13.391"/>
	</g>
	<g>
		<g>
			<rect x="71.185" y="0" fill="#006CB6" width="63.815" height="1"/>
		</g>
		<g>
			<rect x="71.185" y="21.765" fill="#006CB6" width="63.815" height="1"/>
		</g>
	</g>
</g>
</svg>
